HIERARCHY
ROOT pelvis
{
	OFFSET 0.003123 -0.351407 0.012037
	CHANNELS 6 Xposition Yposition Zposition Zrotation Yrotation Xrotation 
	JOINT left_hip
	{
		OFFSET 0.058189 -0.092763 -0.026001
		CHANNELS 3 Zrotation Yrotation Xrotation
		JOINT left_knee
		{
			OFFSET 0.054695 -0.378753 -0.009396
			CHANNELS 3 Zrotation Yrotation Xrotation
			JOINT left_ankle
			{
				OFFSET -0.043453 -0.403059 -0.031876
				CHANNELS 3 Zrotation Yrotation Xrotation
				JOINT left_foot
				{
					OFFSET 0.047257 -0.057997 0.118216
					CHANNELS 3 Zrotation Yrotation Xrotation
					End Site
					{
						OFFSET 0.000000 0.000000 0.000000
					}
				}
			}
		}
	}
	JOINT right_hip
	{
		OFFSET -0.063267 -0.103908 -0.021250
		CHANNELS 3 Zrotation Yrotation Xrotation
		JOINT right_knee
		{
			OFFSET -0.044210 -0.362380 -0.016824
			CHANNELS 3 Zrotation Yrotation Xrotation
			JOINT right_ankle
			{
				OFFSET 0.015417 -0.410728 -0.020192
				CHANNELS 3 Zrotation Yrotation Xrotation
				JOINT right_foot
				{
					OFFSET -0.038812 -0.058328 0.119049
					CHANNELS 3 Zrotation Yrotation Xrotation
					End Site
					{
						OFFSET 0.000000 0.000000 0.000000
					}
				}
			}
		}
	}
	JOINT spine_1
	{
		OFFSET -0.002763 0.109891 -0.027618
		CHANNELS 3 Zrotation Yrotation Xrotation
		JOINT spine_2
		{
			OFFSET 0.009448 0.131853 -0.005940
			CHANNELS 3 Zrotation Yrotation Xrotation
			JOINT spine_3
			{
				OFFSET -0.011330 0.052235 0.028447
				CHANNELS 3 Zrotation Yrotation Xrotation
				JOINT neck
				{
					OFFSET -0.012164 0.165167 -0.031615
					CHANNELS 3 Zrotation Yrotation Xrotation
					JOINT head
					{
						OFFSET 0.024783 0.160452 0.020737
						CHANNELS 3 Zrotation Yrotation Xrotation
						End Site
						{
							OFFSET 0.000000 0.000000 0.000000
						}
					}
				}
				JOINT left_collar
				{
					OFFSET 0.046364 0.084944 -0.007220
					CHANNELS 3 Zrotation Yrotation Xrotation
					JOINT left_shoulder
					{
						OFFSET 0.119239 0.057728 -0.015461
						CHANNELS 3 Zrotation Yrotation Xrotation
						JOINT left_elbow
						{
							OFFSET 0.254123 -0.072151 -0.042459
							CHANNELS 3 Zrotation Yrotation Xrotation
							JOINT left_wrist
							{
								OFFSET 0.251987 0.023221 -0.002472
								CHANNELS 3 Zrotation Yrotation Xrotation
								JOINT left_index_1
								{
									OFFSET 0.101902 -0.008688 0.019351
									CHANNELS 3 Zrotation Yrotation Xrotation
									JOINT left_index_2
									{
										OFFSET 0.030149 -0.011154 0.001151
										CHANNELS 3 Zrotation Yrotation Xrotation
										JOINT left_index_3
										{
											OFFSET 0.006504 -0.021577 -0.002433
											CHANNELS 3 Zrotation Yrotation Xrotation
											End Site
											{
												OFFSET 0.000000 0.000000 0.000000
											}
										}
									}
								}
								JOINT left_middle_1
								{
									OFFSET 0.109398 -0.006328 -0.003981
									CHANNELS 3 Zrotation Yrotation Xrotation
									JOINT left_middle_2
									{
										OFFSET 0.026472 -0.015218 -0.004641
										CHANNELS 3 Zrotation Yrotation Xrotation
										JOINT left_middle_3
										{
											OFFSET 0.005022 -0.023347 -0.001911
											CHANNELS 3 Zrotation Yrotation Xrotation
											End Site
											{
												OFFSET 0.000000 0.000000 0.000000
											}
										}
									}
								}
								JOINT left_pinky_1
								{
									OFFSET 0.084047 -0.014539 -0.043750
									CHANNELS 3 Zrotation Yrotation Xrotation
									JOINT left_pinky_2
									{
										OFFSET 0.012124 -0.014448 -0.005375
										CHANNELS 3 Zrotation Yrotation Xrotation
										JOINT left_pinky_3
										{
											OFFSET 0.003798 -0.018853 0.000167
											CHANNELS 3 Zrotation Yrotation Xrotation
											End Site
											{
												OFFSET 0.000000 0.000000 0.000000
											}
										}
									}
								}
								JOINT left_ring_1
								{
									OFFSET 0.097444 -0.009268 -0.027345
									CHANNELS 3 Zrotation Yrotation Xrotation
									JOINT left_ring_2
									{
										OFFSET 0.023561 -0.016057 -0.001895
										CHANNELS 3 Zrotation Yrotation Xrotation
										JOINT left_ring_3
										{
											OFFSET 0.004257 -0.023548 0.000814
											CHANNELS 3 Zrotation Yrotation Xrotation
											End Site
											{
												OFFSET 0.000000 0.000000 0.000000
											}
										}
									}
								}
								JOINT left_thumb_1
								{
									OFFSET 0.040636 -0.017977 0.025611
									CHANNELS 3 Zrotation Yrotation Xrotation
									JOINT left_thumb_2
									{
										OFFSET 0.021637 -0.017639 0.011623
										CHANNELS 3 Zrotation Yrotation Xrotation
										JOINT left_thumb_3
										{
											OFFSET 0.024002 -0.008356 0.006548
											CHANNELS 3 Zrotation Yrotation Xrotation
											End Site
											{
												OFFSET 0.000000 0.000000 0.000000
											}
										}
									}
								}
							}
						}
					}
				}
				JOINT right_collar
				{
					OFFSET -0.047695 0.084339 -0.013400
					CHANNELS 3 Zrotation Yrotation Xrotation
					JOINT right_shoulder
					{
						OFFSET -0.102578 0.053524 -0.012669
						CHANNELS 3 Zrotation Yrotation Xrotation
						JOINT right_elbow
						{
							OFFSET -0.271150 -0.036492 -0.026467
							CHANNELS 3 Zrotation Yrotation Xrotation
							JOINT right_wrist
							{
								OFFSET -0.249267 -0.004533 -0.015325
								CHANNELS 3 Zrotation Yrotation Xrotation
								JOINT right_index_1
								{
									OFFSET -0.099881 -0.011783 0.019600
									CHANNELS 3 Zrotation Yrotation Xrotation
									JOINT right_index_2
									{
										OFFSET -0.030148 -0.011154 0.001151
										CHANNELS 3 Zrotation Yrotation Xrotation
										JOINT right_index_3
										{
											OFFSET -0.006505 -0.021577 -0.002432
											CHANNELS 3 Zrotation Yrotation Xrotation
											End Site
											{
												OFFSET 0.000000 0.000000 0.000000
											}
										}
									}
								}
								JOINT right_middle_1
								{
									OFFSET -0.107376 -0.009422 -0.003734
									CHANNELS 3 Zrotation Yrotation Xrotation
									JOINT right_middle_2
									{
										OFFSET -0.026472 -0.015218 -0.004641
										CHANNELS 3 Zrotation Yrotation Xrotation
										JOINT right_middle_3
										{
											OFFSET -0.005022 -0.023347 -0.001911
											CHANNELS 3 Zrotation Yrotation Xrotation
											End Site
											{
												OFFSET 0.000000 0.000000 0.000000
											}
										}
									}
								}
								JOINT right_pinky_1
								{
									OFFSET -0.082027 -0.017634 -0.043503
									CHANNELS 3 Zrotation Yrotation Xrotation
									JOINT right_pinky_2
									{
										OFFSET -0.012123 -0.014448 -0.005374
										CHANNELS 3 Zrotation Yrotation Xrotation
										JOINT right_pinky_3
										{
											OFFSET -0.003798 -0.018852 0.000167
											CHANNELS 3 Zrotation Yrotation Xrotation
											End Site
											{
												OFFSET 0.000000 0.000000 0.000000
											}
										}
									}
								}
								JOINT right_ring_1
								{
									OFFSET -0.095423 -0.012362 -0.027099
									CHANNELS 3 Zrotation Yrotation Xrotation
									JOINT right_ring_2
									{
										OFFSET -0.023561 -0.016057 -0.001895
										CHANNELS 3 Zrotation Yrotation Xrotation
										JOINT right_ring_3
										{
											OFFSET -0.004257 -0.023548 0.000816
											CHANNELS 3 Zrotation Yrotation Xrotation
											End Site
											{
												OFFSET 0.000000 0.000000 0.000000
											}
										}
									}
								}
								JOINT right_thumb_1
								{
									OFFSET -0.038613 -0.021074 0.025861
									CHANNELS 3 Zrotation Yrotation Xrotation
									JOINT right_thumb_2
									{
										OFFSET -0.021636 -0.017639 0.011623
										CHANNELS 3 Zrotation Yrotation Xrotation
										JOINT right_thumb_3
										{
											OFFSET -0.024004 -0.008353 0.006547
											CHANNELS 3 Zrotation Yrotation Xrotation
											End Site
											{
												OFFSET 0.000000 0.000000 0.000000
											}
										}
									}
								}
							}
						}
					}
				}
			}
		}
	}
}
MOTION
Frames: 7
Frame Time: 0.050000
0.144188 0.685806 0.532501 1.275076 -16.062160 -42.967820 7.013301 -0.501752 -21.369739 -7.473749 5.035963 86.818427 -8.563977 -23.431252 -4.349483 0.000000 0.000000 0.000000 -3.187935 3.407995 -25.195570 27.443436 -11.865419 85.651294 -2.092435 -8.472303 8.715848 0.000000 0.000000 0.000000 1.951304 -1.498058 20.442965 -6.435787 1.837513 -4.571544 4.710105 -6.434818 33.203442 0.127954 -0.988386 7.339160 0.000000 0.000000 0.000000 6.587743 -15.245544 5.856641 -46.783421 -49.061941 3.935839 148.833111 -71.901854 -119.711300 15.962183 1.039229 -29.140101 6.493687 4.316588 1.347463 20.410860 -2.886655 -24.326484 0.000000 0.000000 0.000000 -4.021599 -16.747741 -8.206081 22.443398 -0.104208 -12.075320 0.000000 0.000000 0.000000 7.602672 -27.941877 -38.576666 18.303501 0.783574 6.623596 0.000000 0.000000 0.000000 -6.554815 -23.000766 -12.923889 27.475709 1.818347 -11.800334 0.000000 0.000000 0.000000 40.131497 26.036806 9.579262 -20.989029 -12.619274 2.973441 0.000000 0.000000 0.000000 -11.671197 16.054967 8.416146 64.618608 44.866710 6.503017 -164.786277 56.252687 -153.886921 -8.830601 -8.190959 -26.261988 -0.805561 -4.512521 1.294921 -17.076151 1.612211 -16.003477 0.000000 0.000000 0.000000 8.632417 12.909512 -6.676912 -16.752527 1.078250 -15.688754 0.000000 0.000000 0.000000 -6.310014 22.644809 -31.820088 -17.537894 -0.311125 2.489083 0.000000 0.000000 0.000000 9.885810 19.102639 -10.448496 -23.800548 -1.180345 -12.270557 0.000000 0.000000 0.000000 -33.393405 -22.839546 5.823880 18.650621 10.664126 2.295982 0.000000 0.000000 0.000000 
0.142303 0.685806 0.529861 1.034451 -13.613340 -43.272921 6.951840 -0.733778 -21.728600 -8.259708 4.291376 86.982909 -11.617462 -28.001170 -2.296247 0.000000 0.000000 0.000000 -4.105459 2.925683 -24.520308 25.918690 -11.796609 85.879855 -1.117792 -6.426233 7.781859 0.000000 0.000000 0.000000 2.079631 -1.456164 20.404607 -6.455302 1.782570 -5.082859 5.429618 -6.883315 33.884083 0.074117 -1.059115 7.983911 0.000000 0.000000 0.000000 5.886972 -15.505779 6.110329 -46.223504 -49.653966 3.403739 151.077378 -72.557233 -123.149827 15.782958 0.565965 -27.565898 4.718233 4.651251 1.396235 24.783169 -2.287057 -23.826585 0.000000 0.000000 0.000000 -3.841922 -16.331782 -8.123275 25.841122 -0.129640 -12.121381 0.000000 0.000000 0.000000 11.806103 -27.320293 -39.566930 17.389726 0.727670 5.470441 0.000000 0.000000 0.000000 -4.309172 -23.074012 -13.713415 28.425393 1.981908 -11.172568 0.000000 0.000000 0.000000 41.335518 26.126094 9.658694 -21.825038 -13.050938 3.249765 0.000000 0.000000 0.000000 -13.269240 14.443910 7.767858 66.562459 44.673949 7.239580 -165.725055 57.158718 -155.226691 -8.862376 -7.406195 -27.271775 1.003112 -4.994763 1.376873 -17.537391 0.911872 -13.608567 0.000000 0.000000 0.000000 9.651919 12.945715 -6.644363 -16.053859 0.761425 -13.616362 0.000000 0.000000 0.000000 -5.407035 22.064733 -30.984404 -18.471565 -0.290596 3.059696 0.000000 0.000000 0.000000 10.943465 18.131232 -9.708622 -23.077524 -0.945208 -13.085418 0.000000 0.000000 0.000000 -34.806170 -23.321611 6.096625 20.423708 11.111355 2.907489 0.000000 0.000000 0.000000 
0.140419 0.685806 0.529861 1.438731 -11.826797 -43.253774 6.927207 -0.838861 -21.401255 -9.934829 4.829811 85.894177 -12.183233 -29.958580 -2.700800 0.000000 0.000000 0.000000 -4.898393 2.616007 -24.235139 24.828381 -11.736590 85.630086 -2.172925 -8.282487 8.025277 0.000000 0.000000 0.000000 2.064736 -1.416624 19.585180 -6.651943 1.876656 -5.352402 5.329711 -6.462243 34.851887 0.090804 -1.057823 7.696692 0.000000 0.000000 0.000000 6.520027 -15.955864 6.206860 -46.299604 -49.818075 3.082952 152.941329 -72.171440 -125.401669 15.367920 2.328528 -28.315735 4.104020 3.915327 1.116246 17.268254 -3.815883 -27.624661 0.000000 0.000000 0.000000 -5.321151 -16.587481 -8.045349 19.110507 -0.627319 -16.458207 0.000000 0.000000 0.000000 9.733861 -27.464494 -39.086005 16.408689 0.641076 4.438320 0.000000 0.000000 0.000000 -5.819005 -23.276380 -13.393039 24.548597 1.290046 -13.996246 0.000000 0.000000 0.000000 40.127249 25.235947 7.539303 -21.717351 -12.104611 3.212357 0.000000 0.000000 0.000000 -13.138066 13.671824 7.336053 66.866785 43.708394 7.449801 -167.541337 56.592143 -158.065287 -8.832294 -7.836024 -25.702034 -0.425613 -4.772898 1.365730 -15.611302 1.771272 -16.422285 0.000000 0.000000 0.000000 9.043626 12.944266 -6.730857 -15.491633 1.249006 -16.950327 0.000000 0.000000 0.000000 -6.031008 22.674873 -31.929079 -17.786054 -0.108255 1.152970 0.000000 0.000000 0.000000 9.716989 18.049530 -10.071566 -21.208513 -0.500509 -15.293058 0.000000 0.000000 0.000000 -32.815324 -21.955014 4.664412 19.979822 10.575141 2.841077 0.000000 0.000000 0.000000 
0.138535 0.688385 0.525902 0.912528 -10.036072 -42.400858 7.220171 -0.950271 -22.153167 -11.666576 5.404229 85.187836 -10.567060 -27.885986 -3.894652 0.000000 0.000000 0.000000 -5.067335 2.473752 -24.373077 24.453035 -12.616317 85.824882 -3.986666 -9.520585 3.682457 0.000000 0.000000 0.000000 2.029102 -1.392265 19.530896 -6.506308 1.832690 -5.501286 5.538925 -6.087525 34.011384 0.196780 -1.249125 9.002116 0.000000 0.000000 0.000000 5.913068 -16.195994 6.515832 -46.127530 -50.545959 2.611817 153.602473 -73.302661 -127.540278 14.495589 0.538682 -29.133562 4.211959 4.650649 1.361424 15.110223 -4.295288 -27.360334 0.000000 0.000000 0.000000 -7.426991 -17.250354 -8.092398 19.858151 -0.545578 -15.262314 0.000000 0.000000 0.000000 7.808839 -28.919312 -40.077709 15.285654 0.867803 5.481695 0.000000 0.000000 0.000000 -7.306894 -25.146733 -13.815938 23.715769 1.293976 -11.329300 0.000000 0.000000 0.000000 38.913435 24.946162 7.359290 -21.978979 -11.413971 3.483010 0.000000 0.000000 0.000000 -11.759450 12.911074 6.905030 66.992134 43.170140 8.084473 -168.668607 57.667019 -160.732220 -7.692804 -5.655077 -27.350088 0.658422 -3.691495 1.005159 -9.876238 1.699429 -14.474804 0.000000 0.000000 0.000000 10.716386 14.036597 -7.078889 -8.978492 2.176233 -17.808468 0.000000 0.000000 0.000000 -4.520404 22.860545 -32.223149 -16.628964 -0.169984 1.901358 0.000000 0.000000 0.000000 11.291925 19.476051 -10.487571 -18.183787 0.201279 -14.932617 0.000000 0.000000 0.000000 -30.919550 -21.562623 4.187976 16.960329 9.624056 1.774165 0.000000 0.000000 0.000000 
0.136650 0.688385 0.521942 1.183327 -8.399816 -42.801171 7.316289 -1.015084 -21.617711 -14.582937 7.415018 84.029965 -7.890449 -22.673663 -4.752574 0.000000 0.000000 0.000000 -5.634672 2.150000 -23.636816 24.628149 -13.810188 86.459735 -7.100599 -13.773203 0.055011 0.000000 0.000000 0.000000 1.527036 -1.335962 19.145705 -5.809652 1.844590 -4.481822 5.155205 -5.832014 33.393494 1.000678 -1.496736 8.934751 0.000000 0.000000 0.000000 6.155772 -17.442869 7.070532 -45.729909 -50.494303 2.160599 149.469379 -73.290890 -122.736978 14.628112 -0.432732 -30.440329 3.637183 3.505961 0.965906 11.848361 -4.890963 -27.878312 0.000000 0.000000 0.000000 -10.483839 -19.331150 -8.369950 18.530341 -0.538124 -15.595413 0.000000 0.000000 0.000000 4.250525 -31.889742 -42.376475 16.507352 0.881913 6.146206 0.000000 0.000000 0.000000 -10.898912 -28.429466 -14.125237 24.583133 1.318667 -11.030285 0.000000 0.000000 0.000000 38.145787 24.369047 6.234459 -21.996251 -10.835716 3.547815 0.000000 0.000000 0.000000 -11.838849 14.653654 7.419296 66.499709 43.050003 8.526792 -166.100558 57.748122 -155.945253 -6.945839 -5.964782 -27.793687 2.560645 -2.682131 0.744240 -9.214402 2.635179 -19.485096 0.000000 0.000000 0.000000 12.663405 14.983646 -7.255596 -10.102916 2.316084 -19.990693 0.000000 0.000000 0.000000 -3.952812 22.118451 -31.459193 -15.661217 0.270971 -1.023602 0.000000 0.000000 0.000000 12.799206 19.291821 -10.044147 -18.592370 0.936423 -19.805561 0.000000 0.000000 0.000000 -31.871204 -20.888218 2.840788 18.669168 9.895820 2.321484 0.000000 0.000000 0.000000 
0.135708 0.688385 0.520622 1.121679 -6.485405 -43.353150 7.237124 -1.151320 -21.287243 -15.931708 7.549470 83.642583 -8.967623 -23.720797 -3.582296 0.000000 0.000000 0.000000 -6.732606 1.680837 -22.696778 23.601170 -14.000871 87.071577 -6.507663 -11.999794 -1.671070 0.000000 0.000000 0.000000 1.823150 -1.312306 19.091511 -6.129699 1.770416 -5.541212 5.718177 -6.049384 34.544223 1.022635 -1.597295 9.463351 0.000000 0.000000 0.000000 6.001870 -17.848848 7.259894 -46.418996 -49.892978 1.906424 152.795954 -73.390074 -126.938220 13.999962 -0.924670 -28.469600 2.502960 4.213676 1.168686 17.222902 -3.827478 -28.045039 0.000000 0.000000 0.000000 -8.767364 -18.648142 -8.532441 19.851071 -0.540776 -16.025729 0.000000 0.000000 0.000000 7.950442 -31.394576 -43.854792 17.403848 0.743803 6.112157 0.000000 0.000000 0.000000 -9.286943 -27.821831 -14.650156 26.054103 1.426125 -13.067090 0.000000 0.000000 0.000000 39.740383 25.040007 7.372070 -22.726940 -11.924798 3.712350 0.000000 0.000000 0.000000 -13.499531 13.523268 6.877451 68.135787 43.147192 9.406545 -165.318718 59.252275 -154.524521 -5.527014 -4.882154 -29.104602 2.812894 -2.318566 0.647546 -6.325597 1.760108 -14.784062 0.000000 0.000000 0.000000 14.140219 15.113172 -7.215146 -11.280301 2.192128 -20.237286 0.000000 0.000000 0.000000 -2.899152 22.219056 -31.400970 -16.803004 0.192522 -0.053630 0.000000 0.000000 0.000000 13.935393 19.554856 -9.908365 -20.027947 0.395962 -17.350827 0.000000 0.000000 0.000000 -32.589469 -21.107775 2.891685 20.099186 10.105155 2.836090 0.000000 0.000000 0.000000 
0.134766 0.689674 0.519302 1.265541 -5.208359 -42.977249 7.346607 -1.178322 -20.950901 -17.685074 8.287735 81.763385 -8.211397 -22.769827 -4.236984 0.000000 0.000000 0.000000 -7.689715 1.385690 -22.406826 23.177080 -14.246293 86.578649 -6.862561 -12.006686 -3.347534 0.000000 0.000000 0.000000 2.090113 -1.241429 17.896650 -6.648360 2.112654 -5.522930 5.730252 -5.719812 35.244609 1.164625 -1.642746 9.299232 0.000000 0.000000 0.000000 5.868023 -18.499765 7.615079 -45.207441 -49.468266 0.962910 155.654692 -73.049235 -130.366586 13.719060 0.641021 -29.156088 0.785666 3.573217 0.934796 7.291805 -5.469606 -28.363051 0.000000 0.000000 0.000000 -11.765345 -17.103798 -7.574077 12.875313 -1.848148 -20.675374 0.000000 0.000000 0.000000 6.361208 -31.207046 -43.118045 15.088753 0.617373 4.009293 0.000000 0.000000 0.000000 -11.659766 -26.882369 -13.434595 22.498851 0.439561 -16.846311 0.000000 0.000000 0.000000 39.106030 24.238077 5.540000 -23.249737 -12.520577 3.679979 0.000000 0.000000 0.000000 -12.649812 13.394593 6.706848 68.058550 42.025623 9.342976 -167.197188 58.905524 -157.547552 -5.397503 -5.997851 -29.021198 4.215564 -2.197744 0.645718 -2.049441 2.503997 -15.737819 0.000000 0.000000 0.000000 14.394085 12.769689 -6.405000 -0.366927 5.146446 -22.512488 0.000000 0.000000 0.000000 -1.112246 22.073702 -30.948119 -13.104089 0.791536 -3.303739 0.000000 0.000000 0.000000 15.465731 18.001697 -8.795069 -13.888230 2.819668 -21.902937 0.000000 0.000000 0.000000 -30.974226 -20.024803 1.699044 18.115874 8.777884 2.276054 0.000000 0.000000 0.000000 
